<!DOCTYPE svg PUBLIC "-//W3C//DTD SVG 1.1//EN" "http://www.w3.org/Graphics/SVG/1.1/DTD/svg11.dtd">
<!-- Uploaded to: SVG Repo, www.svgrepo.com, Transformed by: SVG Repo Mixer Tools -->
<svg fill="#000000" width="64px" height="64px" viewBox="0 0 24 24" id="invoice-euro-done-left" data-name="Line Color" xmlns="http://www.w3.org/2000/svg" class="icon line-color">
<g id="SVGRepo_bgCarrier" stroke-width="0"/>
<g id="SVGRepo_tracerCarrier" stroke-linecap="round" stroke-linejoin="round"/>
<g id="SVGRepo_iconCarrier">
<polyline id="secondary" points="16 10.5 14.09 13 13 11.75" style="fill: none; stroke: #19aec8;; stroke-linecap: round; stroke-linejoin: round; stroke-width: 2;"/>
<path id="secondary-2" data-name="secondary" d="M10,17h6M4,10H6" style="fill: none; stroke: #19aec8;; stroke-linecap: round; stroke-linejoin: round; stroke-width: 2;"/>
<path id="secondary-3" data-name="secondary" d="M9,7.77A3,3,0,0,0,7,7H7a3,3,0,0,0-3,3H4a3,3,0,0,0,3,3H7a3,3,0,0,0,2-.77" style="fill: none; stroke: #19aec8;; stroke-linecap: round; stroke-linejoin: round; stroke-width: 2;"/>
<path id="primary" d="M6,18v2a1,1,0,0,0,1,1H19a1,1,0,0,0,1-1V4a1,1,0,0,0-1-1H7" style="fill: none; stroke: #999; stroke-linecap: round; stroke-linejoin: round; stroke-width: 2;"/>
</g>
</svg>