<!DOCTYPE svg PUBLIC "-//W3C//DTD SVG 1.1//EN" "http://www.w3.org/Graphics/SVG/1.1/DTD/svg11.dtd">
<!-- Uploaded to: SVG Repo, www.svgrepo.com, Transformed by: SVG Repo Mixer Tools -->
<svg version="1.1" id="Layer_1" xmlns="http://www.w3.org/2000/svg" xmlns:xlink="http://www.w3.org/1999/xlink" viewBox="0 0 512 512" xml:space="preserve" width="64px" height="64px" fill="#000000">
<g id="SVGRepo_bgCarrier" stroke-width="0"/>
<g id="SVGRepo_tracerCarrier" stroke-linecap="round" stroke-linejoin="round"/>
<g id="SVGRepo_iconCarrier"> <rect x="183.976" y="370.32" style="fill:#666666;" width="144.08" height="108.336"/> <polygon style="fill:#143b61;" points="183.976,389.08 269.688,389.08 183.976,446.984 "/> <g> <path style="fill:#D6D6D6;" d="M369.52,499.64H142.496c-8.824-0.024-15.976-7.176-16-16l0,0c0.024-8.824,7.176-15.976,16-16 h227.008c8.824,0.024,15.976,7.176,16,16l0,0C385.504,492.472,378.352,499.632,369.52,499.64z"/> <path style="fill:#D6D6D6;" d="M480,389.08H32c-17.648-0.056-31.944-14.352-32-32v-288c0.056-17.648,14.352-31.944,32-32h448 c17.648,0.056,31.944,14.352,32,32v288C511.944,374.728,497.648,389.024,480,389.08z"/> </g> <rect x="21.968" y="59.016" style="fill:#FFFFFF;" width="468.08" height="308.128"/> <circle style="fill:#999999;" cx="368.72" cy="192.96" r="84.832"/> <path style="fill:#FFFFFF;" d="M364.6,239.488V228.08c-6.68-0.072-13.24-1.848-19.04-5.168l3.2-11.048 c5.56,3.288,11.88,5.072,18.336,5.168c7.408,0,12.464-3.64,12.464-9.288c0-5.288-4.112-8.696-12.8-11.864 c-12.36-4.472-20.36-10.112-20.36-21.048c0.216-10.544,8.408-19.2,18.928-20v-11.504h9.64v10.928 c5.624,0.064,11.168,1.392,16.216,3.88l-3.2,10.816c-4.936-2.592-10.424-3.968-16-4c-8.224,0-11.2,4.232-11.2,8.232 c0,4.8,4.232,7.52,14.224,11.512c13.168,4.936,19.04,11.288,19.04,21.752c-0.232,11.056-8.84,20.112-19.864,20.92v12.112 L364.6,239.488z"/> <circle style="fill:#19aec8;" cx="140.896" cy="94.776" r="82.416"/> <path style="fill:#FFFFFF;" d="M136.92,139.992v-11.064c-6.488-0.072-12.856-1.8-18.488-5.024l3.088-10.744 c5.4,3.2,11.536,4.928,17.808,5.024c7.2,0,12.104-3.536,12.104-9.016c0-5.144-4-8.448-12.448-11.528 c-12-4.336-19.744-9.816-19.744-20.432c0.216-10.24,8.184-18.64,18.4-19.4v-11.2H147v10.648c5.464,0.056,10.848,1.344,15.752,3.768 l-3.08,10.504c-4.792-2.512-10.112-3.84-15.52-3.88c-8,0-10.84,4.112-10.84,8c0,4.68,4.112,7.304,13.816,11.2 c12.8,4.8,18.488,10.96,18.488,21.12c-0.216,10.736-8.576,19.544-19.288,20.32v11.752L136.92,139.992z"/> <circle cx="199.504" cy="278.088" r="63.832"/> <path style="fill:#FFFFFF;" d="M196.424,313.112v-8.568c-5.024-0.064-9.952-1.4-14.312-3.888l2.4-8.312 c4.176,2.48,8.936,3.816,13.792,3.888c5.6,0,9.368-2.736,9.368-6.984c0-4-3.096-6.536-9.6-8.92c-9.28-3.36-15.288-7.6-15.288-15.824 c0.168-7.92,6.32-14.424,14.224-15.024v-8.664h7.248v8.216c4.232,0.048,8.4,1.048,12.192,2.92l-2.4,8.128 c-3.704-1.936-7.816-2.968-12-3c-6.184,0-8.4,3.2-8.4,6.184c0,3.616,3.2,5.656,10.696,8.656c9.896,3.712,14.32,8.488,14.32,16.352 c-0.176,8.312-6.648,15.128-14.936,15.736v9.104L196.424,313.112L196.424,313.112z"/> </g>
</svg>